<svg xmlns="http://www.w3.org/2000/svg" viewBox="0 0 24 24" width="24" height="24" preserveAspectRatio="xMidYMid meet" style="width: 100%; height: 100%; transform: translate3d(0px, 0px, 0px);"><defs><clipPath id="__lottie_element_2"><rect width="24" height="24" x="0" y="0"/></clipPath><clipPath id="__lottie_element_19"><path d="M0,0 L24,0 L24,24 L0,24z"/></clipPath></defs><g><g transform="matrix(0.7071067690849304,0.7071067690849304,-0.7071067690849304,0.7071067690849304,9.609993934631348,8.918749809265137)" opacity="1" style="display: block;"><g opacity="1" transform="matrix(1,0,0,1,-0.25999999046325684,-6.370999813079834)"><path fill="rgb(0,161,214)" fill-opacity="1" d=" M0,-3.388000011444092 C-0.40799999237060547,-3.388000011444092 -0.7390000224113464,-3.056999921798706 -0.7390000224113464,-2.6489999294281006 C-0.7390000224113464,-2.6489999294281006 -0.7390000224113464,2.6489999294281006 -0.7390000224113464,2.6489999294281006 C-0.7390000224113464,3.056999921798706 -0.40799999237060547,3.388000011444092 0,3.388000011444092 C0.40799999237060547,3.388000011444092 0.7390000224113464,3.056999921798706 0.7390000224113464,2.6489999294281006 C0.7390000224113464,2.6489999294281006 0.7390000224113464,-2.6489999294281006 0.7390000224113464,-2.6489999294281006 C0.7390000224113464,-3.056999921798706 0.40799999237060547,-3.388000011444092 0,-3.388000011444092z"/><path stroke-linecap="butt" stroke-linejoin="miter" fill-opacity="0" stroke-miterlimit="4" stroke="rgb(69,69,69)" stroke-opacity="1" stroke-width="0" d=" M0,-3.388000011444092 C-0.40799999237060547,-3.388000011444092 -0.7390000224113464,-3.056999921798706 -0.7390000224113464,-2.6489999294281006 C-0.7390000224113464,-2.6489999294281006 -0.7390000224113464,2.6489999294281006 -0.7390000224113464,2.6489999294281006 C-0.7390000224113464,3.056999921798706 -0.40799999237060547,3.388000011444092 0,3.388000011444092 C0.40799999237060547,3.388000011444092 0.7390000224113464,3.056999921798706 0.7390000224113464,2.6489999294281006 C0.7390000224113464,2.6489999294281006 0.7390000224113464,-2.6489999294281006 0.7390000224113464,-2.6489999294281006 C0.7390000224113464,-3.056999921798706 0.40799999237060547,-3.388000011444092 0,-3.388000011444092z"/></g></g><g transform="matrix(1,0,0,1,0,0)" opacity="1" style="display: block;"><g xmlns="http://www.w3.org/2000/svg" transform="matrix(1,0,0,1,9.875,11.25)" style="display: block;"><g opacity="1" transform="matrix(1,0,0,1,-2.2850000858306885,2.7149999141693115)"><path fill="rgb(0,161,214)" fill-opacity="1" d=" M0,-1.4019999504089355 C-0.7739999890327454,-1.4019999504089355 -1.4019999504089355,-0.7739999890327454 -1.4019999504089355,0 C-1.4019999504089355,0.7739999890327454 -0.7739999890327454,1.4019999504089355 0,1.4019999504089355 C0.7739999890327454,1.4019999504089355 1.4019999504089355,0.7739999890327454 1.4019999504089355,0 C1.4019999504089355,-0.7739999890327454 0.7739999890327454,-1.4019999504089355 0,-1.4019999504089355z"/><path stroke-linecap="butt" stroke-linejoin="miter" fill-opacity="0" stroke-miterlimit="4" stroke="rgb(69,69,69)" stroke-opacity="1" stroke-width="0" d=" M0,-1.4019999504089355 C-0.7739999890327454,-1.4019999504089355 -1.4019999504089355,-0.7739999890327454 -1.4019999504089355,0 C-1.4019999504089355,0.7739999890327454 -0.7739999890327454,1.4019999504089355 0,1.4019999504089355 C0.7739999890327454,1.4019999504089355 1.4019999504089355,0.7739999890327454 1.4019999504089355,0 C1.4019999504089355,-0.7739999890327454 0.7739999890327454,-1.4019999504089355 0,-1.4019999504089355z"/></g><animate xmlns="http://www.w3.org/2000/svg" attributeName="opacity" values="0;0.50;0.75;1;0.75;0.50;0;0;0;0;0;" dur="1" repeatCount="indefinite"/></g><g transform="matrix(1,0,0,1,14.406000137329102,11.25)" opacity="1" style="display: block;"><g opacity="1" transform="matrix(1,0,0,1,-2.2850000858306885,2.7149999141693115)"><path fill="rgb(0,161,214)" fill-opacity="1" d=" M0,-1.4019999504089355 C-0.7739999890327454,-1.4019999504089355 -1.4019999504089355,-0.7739999890327454 -1.4019999504089355,0 C-1.4019999504089355,0.7739999890327454 -0.7739999890327454,1.4019999504089355 0,1.4019999504089355 C0.7739999890327454,1.4019999504089355 1.4019999504089355,0.7739999890327454 1.4019999504089355,0 C1.4019999504089355,-0.7739999890327454 0.7739999890327454,-1.4019999504089355 0,-1.4019999504089355z"/><path stroke-linecap="butt" stroke-linejoin="miter" fill-opacity="0" stroke-miterlimit="4" stroke="rgb(69,69,69)" stroke-opacity="1" stroke-width="0" d=" M0,-1.4019999504089355 C-0.7739999890327454,-1.4019999504089355 -1.4019999504089355,-0.7739999890327454 -1.4019999504089355,0 C-1.4019999504089355,0.7739999890327454 -0.7739999890327454,1.4019999504089355 0,1.4019999504089355 C0.7739999890327454,1.4019999504089355 1.4019999504089355,0.7739999890327454 1.4019999504089355,0 C1.4019999504089355,-0.7739999890327454 0.7739999890327454,-1.4019999504089355 0,-1.4019999504089355z"/></g><animate xmlns="http://www.w3.org/2000/svg" attributeName="opacity" values="0;0;0;0.50;0.75;1;0.75;0.50;0;0;0;" dur="1" repeatCount="indefinite"/></g><g transform="matrix(1,0,0,1,19.0939998626709,11.25)" opacity="1" style="display: block;"><g opacity="1" transform="matrix(1,0,0,1,-2.2850000858306885,2.7149999141693115)"><path fill="rgb(0,161,214)" fill-opacity="1" d=" M0,-1.4019999504089355 C-0.7739999890327454,-1.4019999504089355 -1.4019999504089355,-0.7739999890327454 -1.4019999504089355,0 C-1.4019999504089355,0.7739999890327454 -0.7739999890327454,1.4019999504089355 0,1.4019999504089355 C0.7739999890327454,1.4019999504089355 1.4019999504089355,0.7739999890327454 1.4019999504089355,0 C1.4019999504089355,-0.7739999890327454 0.7739999890327454,-1.4019999504089355 0,-1.4019999504089355z"/><path stroke-linecap="butt" stroke-linejoin="miter" fill-opacity="0" stroke-miterlimit="4" stroke="rgb(69,69,69)" stroke-opacity="1" stroke-width="0" d=" M0,-1.4019999504089355 C-0.7739999890327454,-1.4019999504089355 -1.4019999504089355,-0.7739999890327454 -1.4019999504089355,0 C-1.4019999504089355,0.7739999890327454 -0.7739999890327454,1.4019999504089355 0,1.4019999504089355 C0.7739999890327454,1.4019999504089355 1.4019999504089355,0.7739999890327454 1.4019999504089355,0 C1.4019999504089355,-0.7739999890327454 0.7739999890327454,-1.4019999504089355 0,-1.4019999504089355z"/></g><animate xmlns="http://www.w3.org/2000/svg" attributeName="opacity" values="0;0;0;0;0;0.50;0.75;1;0.75;0.50;0;" dur="1" repeatCount="indefinite"/></g></g><g transform="matrix(0.9840099811553955,0,0,1.070970058441162,12,13.75)" opacity="1" style="display: block;"><g opacity="1" transform="matrix(1,0,0,1,0,0)"><path fill="rgb(11,163,149)" fill-opacity="0" d=" M-0.05000000074505806,-6.757999897003174 C-0.05000000074505806,-6.757999897003174 -3.0820000171661377,-6.72599983215332 -6.130000114440918,-6.72599983215332 C-9.178000450134277,-6.72599983215332 -10.121000289916992,-4.785999774932861 -10.121000289916992,-2.5850000381469727 C-10.121000289916992,-0.5540000200271606 -10.13700008392334,1.4800000190734863 -10.13700008392334,3.078000068664551 C-10.13700008392334,5.164999961853027 -9.178000450134277,6.815999984741211 -6.1620001792907715,6.815999984741211 C-4.13100004196167,6.815999984741211 3.609999895095825,6.822000026702881 6.0920000076293945,6.822000026702881 C9.145999908447266,6.822000026702881 10.270000457763672,5.164999961853027 10.270000457763672,3.072999954223633 C10.270000457763672,1.1979999542236328 10.28499984741211,-0.8349999785423279 10.28499984741211,-2.634999990463257 C10.28499984741211,-4.784999847412109 9.145999908447266,-6.7179999351501465 6.091000080108643,-6.7179999351501465 C4.247000217437744,-6.7179999351501465 -0.05000000074505806,-6.757999897003174 -0.05000000074505806,-6.757999897003174z"/><path stroke-linecap="round" stroke-linejoin="round" fill-opacity="0" stroke="rgb(0,161,214)" stroke-opacity="1" stroke-width="1.5" d=" M-0.05000000074505806,-6.757999897003174 C-0.05000000074505806,-6.757999897003174 -3.0820000171661377,-6.72599983215332 -6.130000114440918,-6.72599983215332 C-9.178000450134277,-6.72599983215332 -10.121000289916992,-4.785999774932861 -10.121000289916992,-2.5850000381469727 C-10.121000289916992,-0.5540000200271606 -10.13700008392334,1.4800000190734863 -10.13700008392334,3.078000068664551 C-10.13700008392334,5.164999961853027 -9.178000450134277,6.815999984741211 -6.1620001792907715,6.815999984741211 C-4.13100004196167,6.815999984741211 3.609999895095825,6.822000026702881 6.0920000076293945,6.822000026702881 C9.145999908447266,6.822000026702881 10.270000457763672,5.164999961853027 10.270000457763672,3.072999954223633 C10.270000457763672,1.1979999542236328 10.28499984741211,-0.8349999785423279 10.28499984741211,-2.634999990463257 C10.28499984741211,-4.784999847412109 9.145999908447266,-6.7179999351501465 6.091000080108643,-6.7179999351501465 C4.247000217437744,-6.7179999351501465 -0.05000000074505806,-6.757999897003174 -0.05000000074505806,-6.757999897003174z"/></g></g><g style="display: block;" transform="matrix(0.7071067690849304,-0.7071067690849304,0.7071067690849304,0.7071067690849304,14.453581809997559,8.441146850585938)" opacity="1"><g opacity="1" transform="matrix(1,0,0,1,-0.25999999046325684,-6.370999813079834)"><path fill="rgb(0,161,214)" fill-opacity="1" d=" M0,-3.388000011444092 C-0.40799999237060547,-3.388000011444092 -0.7390000224113464,-3.056999921798706 -0.7390000224113464,-2.6489999294281006 C-0.7390000224113464,-2.6489999294281006 -0.7390000224113464,2.6489999294281006 -0.7390000224113464,2.6489999294281006 C-0.7390000224113464,3.056999921798706 -0.40799999237060547,3.388000011444092 0,3.388000011444092 C0.40799999237060547,3.388000011444092 0.7390000224113464,3.056999921798706 0.7390000224113464,2.6489999294281006 C0.7390000224113464,2.6489999294281006 0.7390000224113464,-2.6489999294281006 0.7390000224113464,-2.6489999294281006 C0.7390000224113464,-3.056999921798706 0.40799999237060547,-3.388000011444092 0,-3.388000011444092z"/><path stroke-linecap="butt" stroke-linejoin="miter" fill-opacity="0" stroke-miterlimit="4" stroke="rgb(69,69,69)" stroke-opacity="1" stroke-width="0" d=" M0,-3.388000011444092 C-0.40799999237060547,-3.388000011444092 -0.7390000224113464,-3.056999921798706 -0.7390000224113464,-2.6489999294281006 C-0.7390000224113464,-2.6489999294281006 -0.7390000224113464,2.6489999294281006 -0.7390000224113464,2.6489999294281006 C-0.7390000224113464,3.056999921798706 -0.40799999237060547,3.388000011444092 0,3.388000011444092 C0.40799999237060547,3.388000011444092 0.7390000224113464,3.056999921798706 0.7390000224113464,2.6489999294281006 C0.7390000224113464,2.6489999294281006 0.7390000224113464,-2.6489999294281006 0.7390000224113464,-2.6489999294281006 C0.7390000224113464,-3.056999921798706 0.40799999237060547,-3.388000011444092 0,-3.388000011444092z"/></g></g><g transform="matrix(1,0,0,1,12,12)" opacity="1" style="display: block;"/></g></svg>